<svg xmlns="http://www.w3.org/2000/svg" fill="none" viewBox="0 0 17 18">
  <path fill="currentColor" d="M16.9963 15.5595 15.9506 3.9534c-.0224-.2577-.2428-.4528-.5005-.4528h-3.2756C12.1446 1.5644 10.5386 0 8.5667 0c-1.972 0-3.578 1.5644-3.6078 3.5006H1.6832c-.2614 0-.478.1951-.5004.4528L.137 15.5595c0 .0147-.0037.0295-.0037.0442C.1333 16.9252 1.362 18 2.8746 18h11.3841c1.5126 0 2.7414-1.0748 2.7414-2.3963 0-.0147 0-.0295-.0038-.0442ZM8.5667.9939c1.4155 0 2.5695 1.119 2.5994 2.5067H5.9673C5.9972 2.113 7.1513.994 8.5667.994Zm5.692 16.0122H2.8747c-.9487 0-1.718-.6184-1.733-1.3803L2.1426 4.4982h2.8126v1.5092c0 .276.224.4969.5042.4969.28 0 .5042-.2209.5042-.497v-1.509h5.2025v1.5092c0 .276.2241.4969.5042.4969s.5042-.2209.5042-.497V4.4983h2.8125l1.0047 11.1276c-.015.7619-.7881 1.3803-1.733 1.3803Z"/>
</svg>