<svg xmlns="http://www.w3.org/2000/svg" fill="none" viewBox="0 0 97 33">
  <path fill="#1A1817" d="M86.1705 2.6932c-.3709-.3146-1.2675-.5247-2.69-.6302l.2198-.848H97l-.2615.848c-1.2036 0-2.1234.3005-2.7595.9016-.6361.601-1.1925 1.856-1.6691 3.7646L87.3305 26.296c-.3616 1.383-.5425 2.3071-.5425 2.7726-.012.2399.0322.4791.1289.6983.0967.2191.2432.4118.4275.5622.4822.3901 1.3927.6002 2.7317.6303l-.2003.8479h-13.525l.2198-.8479c1.3519 0 2.3423-.2892 2.9709-.8677.6287-.5784 1.1971-1.8447 1.7053-3.7986l5.0071-19.5666a12.0904 12.0904 0 0 0 .4619-2.7274 1.6323 1.6323 0 0 0-.1278-.7204 1.6066 1.6066 0 0 0-.4286-.5882l.0111.0028Zm-18.101 14.191c.7416.3383 1.3521.9168 1.7358 1.6449a5.3939 5.3939 0 0 1 .6732 2.7162c.001 2.1322-.6059 4.2192-1.747 6.0087-1.1647 1.871-3.2389 2.8066-6.2229 2.8066-.3337 0-.8354-.0152-1.5049-.0453l3.4744-13.5918c1.6876 0 2.8857.1536 3.5942.4607h-.0028Zm-.0363-14.0073 1.1128-.0452a3.2002 3.2002 0 0 1 1.434.2238 3.246 3.246 0 0 1 1.1948.836c.676.7917 1.0283 1.816.9847 2.8631a9.6713 9.6713 0 0 1-.9541 3.9795c-.6361 1.4056-1.479 2.4165-2.5286 3.0326-1.0498.6162-2.4852.9393-4.3063.9695l3.0627-11.8593Zm-9.4413-.8168c1.326.0603 2.1855.2629 2.5788.6077.1895.1586.3412.3587.4438.5853a1.676 1.676 0 0 1 .1487.7233c0 .6463-.2476 1.9238-.7427 3.8325l-4.8598 18.7978c-.3876 1.5074-.7252 2.4957-1.0126 2.9648a2.652 2.652 0 0 1-1.1434 1.0486c-.4765.2261-1.2628.3392-2.3589.3392l-.2615.8479H62.709c4.243 0 7.1612-.3495 8.7543-1.0486 1.5816-.6883 2.9203-1.8483 3.8388-3.3266.915-1.3516 1.4181-2.9469 1.4465-4.587.0246-1.5792-.4938-3.1175-1.466-4.3498-.9773-1.2473-2.7243-2.2695-5.2408-3.0666 2.4219-.6161 4.2189-1.2887 5.391-2.018 1.1127-.6669 2.0254-1.6294 2.6399-2.7839a7.122 7.122 0 0 0 .8847-3.3124c.015-1.2742-.3753-2.5193-1.1128-3.5499-.767-1.061-1.8818-1.8087-3.1434-2.1084-1.0311-.2864-2.7447-.4296-5.1408-.4296H58.7922l-.2003.8337ZM46.8445 3.756c-.6862-.942-1.5393-1.4131-2.5593-1.4131a5.3274 5.3274 0 0 0-2.7011.6415 8.702 8.702 0 0 0-2.32 2.1537c-.803 1.0062-1.6199 2.4448-2.4508 4.3158-.8308 1.871-1.6107 4.4147-2.3395 7.631-.7307 3.2165-1.0951 5.8986-1.0932 8.0466 0 1.8334.3552 3.2201 1.0654 4.1604.3084.4423.7178.802 1.1931 1.0481a3.256 3.256 0 0 0 1.5359.3651 4.941 4.941 0 0 0 2.0505-.4152 5.0108 5.0108 0 0 0 1.7048-1.2298c2.0401-2.1782 3.7091-5.3757 5.0073-9.5925 1.2981-4.2169 1.9472-7.9703 1.9472-11.2601 0-2.0576-.3449-3.549-1.0348-4.474l-.0055.0225ZM43.829 30.5833c-2.04 1.2776-4.5297 1.9164-7.4691 1.9164-2.1958 0-3.9697-.5032-5.3215-1.5094-1.3841-1.0481-2.4408-2.48-3.0434-4.1235a14.0417 14.0417 0 0 1-1.0125-5.0874c0-3.3369.8503-6.6993 2.5509-10.0872 1.5859-3.2542 3.9503-6.052 6.8765-8.137C39.2938 1.5185 42.1414.5 44.9529.5c1.6613.0051 3.287.4904 4.6872 1.399 1.4891.9441 2.6858 2.296 3.4522 3.9004a11.311 11.311 0 0 1 1.2351 5.0478c0 3.8023-1.0775 7.6159-3.2324 11.4409-2.1549 3.825-4.5797 6.5976-7.2744 8.3179l.0084-.0227ZM27.7336.5311c-.968 1.3651-2.5509 1.1475-3.8945.766a17.9461 17.9461 0 0 0-4.7986-.766C14.5999.4885 10.2853 2.0298 6.8479 4.8864 2.284 8.6286.002 13.3842.002 19.1538c-.04 2.5149.5333 5.0006 1.6691 7.2355 1.1128 2.1178 2.5036 3.6656 4.1727 4.6436 1.669.9779 3.709 1.467 6.12 1.467a22.3427 22.3427 0 0 0 8.8738-1.8034l3.5496-13.9987H14.929l-.2002.8479c1.0292 0 1.7553.1884 2.1781.5653.2013.1735.3625.3902.4716.6346a1.84 1.84 0 0 1 .1598.7785c0 .4201-.1743 1.3067-.523 2.6595l-2.0863 8.0692a6.3415 6.3415 0 0 1-2.5036.6557c-1.619 0-3.0312-.7932-4.2366-2.3797-1.2055-1.5865-1.8073-3.8815-1.8054-6.885-.011-3.4473.6833-6.8591 2.039-10.0193 1.3575-3.1787 3.0006-5.534 4.9294-7.0658 1.9287-1.5319 3.8555-2.295 5.7805-2.2893 1.8731 0 3.3289.6274 4.3674 1.8823 1.0385 1.2549 1.6153 3.3162 1.7303 6.184h.7622L28.4763.5311h-.7427Z"/>
</svg>