<svg xmlns="http://www.w3.org/2000/svg" fill="none" viewBox="0 0 16 16">
  <path fill="currentColor" fill-rule="evenodd" d="M7.112 13.114c3.3138 0 6.0001-2.6863 6.0001-6s-2.6863-6-6-6-6 2.6863-6 6 2.6863 6 6 6Zm0 1c3.8661 0 7.0001-3.134 7.0001-7s-3.134-7-7-7-7 3.134-7 7 3.134 7 7 7Z" clip-rule="evenodd"/>
  <path fill="currentColor" fill-rule="evenodd" d="M11.4987 11.4969a.5.5 0 0 1 .7071 0l3.5356 3.5355a.5001.5001 0 0 1-.7071.7071l-3.5356-3.5355a.5001.5001 0 0 1 0-.7071Z" clip-rule="evenodd"/>
</svg>